<?xml version="1.0" encoding="utf-8"?>
<!-- Generator: Adobe Illustrator 16.0.0, SVG Export Plug-In . SVG Version: 6.00 Build 0)  -->
<!DOCTYPE svg PUBLIC "-//W3C//DTD SVG 1.1//EN" "http://www.w3.org/Graphics/SVG/1.1/DTD/svg11.dtd">
<svg version="1.1" id="Ebene_1" xmlns="http://www.w3.org/2000/svg"  x="0px" y="0px"
	 width="376.012px" height="95.356px" viewBox="0 0 376.012 95.356" enable-background="new 0 0 376.012 95.356"
	 xml:space="preserve">
<g>
	<path fill="#B60017" d="M376.012,86.83c0,4.709-3.817,8.526-8.526,8.526H8.527C3.818,95.356,0,91.539,0,86.83V8.526
		C0,3.817,3.818,0,8.527,0h358.958c4.709,0,8.526,3.817,8.526,8.526V86.83z"/>
	<g>
		<g>
			<path fill="#FFFFFF" d="M39.984,33.647c0-5.229-0.09-5.758-2.824-7.354l-0.914-0.53c-0.455-0.268-0.455-1.507,0-1.771
				c2.279-0.707,6.573-2.036,9.855-3.724c0.367,0,0.732,0.177,0.915,0.53c-0.093,2.659-0.273,7.091-0.273,10.991v18.383
				c0,1.152,0.09,1.326,1.644,1.326c2.005,0,3.741-0.974,6.204-3.453l3.745-3.901c2.552-2.657,3.192-3.632,3.192-4.075
				c0-0.44-0.458-0.709-2.009-0.886l-2.193-0.264c-0.821-0.268-0.821-1.95,0-2.217h2.098c4.023,0,9.409-0.177,14.515-0.711
				c0.641,0.267,0.732,1.775,0.186,2.222l-2.92,0.527c-1.827,0.351-3.375,1.241-5.755,3.103c-3.558,2.746-6.659,5.936-8.301,7.446
				c-1.093,0.971-1.189,1.416-0.643,2.121c1.553,2.044,3.014,3.725,6.12,7.094c3.561,3.896,6.753,7.355,8.58,9.037
				c1.279,1.154,3.103,1.683,4.744,1.949l1.282,0.177c0.638,0.449,0.545,1.951-0.187,2.218c-2.646-0.177-5.751-0.267-8.668-0.267
				c-3.653,0-6.846,0.09-9.491,0.267c-0.729-0.356-0.825-1.86-0.184-2.218l1.644-0.264c1.37-0.18,2.282-0.353,2.282-0.887
				c0-0.53-0.368-1.155-1.554-2.482l-9.767-10.987c-0.814-0.887-1.825-1.24-2.831-1.24c-1.639,0-1.729,0.264-1.729,3.01v4.874
				c0,6.382,0.18,7.27,3.465,7.713l2.195,0.264c0.635,0.449,0.452,1.951-0.185,2.218c-3.014-0.177-5.66-0.267-8.855-0.267
				c-3.288,0-6.021,0.09-8.761,0.267c-0.637-0.267-0.823-1.769-0.096-2.218l2.011-0.264c3.375-0.443,3.465-1.331,3.465-7.713V33.647
				z"/>
			<path fill="#FFFFFF" d="M94.336,58.592c0,6.115,1.554,10.193,8.493,10.193c2.463,0,5.386-0.979,7.389-2.66
				c1.19-1.064,1.824-2.39,1.824-5.143V46.45c0-5.761-0.633-5.938-3.375-7.001l-1.189-0.447c-0.635-0.35-0.635-1.587,0.095-1.945
				c3.648-0.087,8.668-0.709,10.677-1.592c0.458,0.087,0.733,0.264,0.824,0.619c-0.186,1.684-0.274,4.429-0.274,7.708v14.891
				c0,6.997,0.274,9.657,2.83,9.657c1.094,0,2.28-0.177,3.559-0.444c0.545,0.444,0.632,2.222-0.087,2.569
				c-3.563,0.714-8.861,1.595-11.963,3.281c-0.458,0-0.909-0.267-1.096-0.625v-3.63c0-0.795-0.271-1.24-0.821-1.24
				c-2.734,1.684-7.205,4.606-12.592,4.606c-8.032,0-11.047-3.896-11.047-11.075v-14.8c0-5.584,0-6.381-2.74-7.533l-1.093-0.447
				c-0.546-0.438-0.454-1.678,0.183-1.945c4.199-0.087,7.762-0.888,9.771-1.592c0.545,0.087,0.819,0.264,0.908,0.619
				c-0.183,1.507-0.274,3.365-0.274,7.708V58.592z"/>
			<path fill="#FFFFFF" d="M139.816,46.183c0-3.454,0-3.897-2.464-5.493l-0.818-0.531c-0.368-0.355-0.368-1.327,0.09-1.594
				c2.099-0.709,6.933-3.013,9.221-4.344c0.452,0.087,0.727,0.271,0.727,0.621v5.141c0,0.442,0.091,0.707,0.273,0.797
				c3.193-2.565,6.664-5.314,10.039-5.314c2.285,0,4.105,1.418,4.105,3.537c0,2.926-2.461,4.083-3.923,4.083
				c-0.909,0-1.369-0.267-2.011-0.623c-1.359-0.885-2.734-1.416-4.011-1.416c-1.457,0-2.559,0.798-3.285,1.772
				c-0.914,1.235-1.187,3.81-1.187,6.822v12.051c0,6.382,0.187,7.443,3.653,7.713l3.284,0.264c0.641,0.449,0.455,1.951-0.183,2.218
				c-4.293-0.177-6.939-0.267-10.131-0.267c-3.291,0-6.025,0.09-8.397,0.267c-0.641-0.267-0.825-1.769-0.183-2.218l1.737-0.264
				c3.375-0.533,3.465-1.331,3.465-7.713V46.183z"/>
			<path fill="#FFFFFF" d="M173.657,46.183c0-3.454,0-3.897-2.464-5.493l-0.821-0.531c-0.365-0.355-0.365-1.327,0.087-1.594
				c2.102-0.709,7.304-3.013,9.401-4.344c0.457,0,0.825,0.178,0.916,0.534c-0.184,3.101-0.368,7.356-0.368,10.985v15.951
				c0,6.382,0.184,7.27,3.472,7.713l1.914,0.264c0.641,0.449,0.456,1.951-0.185,2.218c-2.736-0.177-5.38-0.267-8.575-0.267
				c-3.289,0-6.025,0.09-8.584,0.267c-0.638-0.267-0.82-1.769-0.178-2.218l1.917-0.264c3.375-0.443,3.467-1.331,3.467-7.713V46.183z
				"/>
			<path fill="#FFFFFF" d="M201.923,48.932c-2.372,0-2.466,0.182-2.466,2.394c0,8.951,5.388,16.57,15.15,16.57
				c3.016,0,5.57-0.885,8.401-4.343c0.91-0.269,1.551,0.264,1.642,1.062c-3.011,6.03-9.587,8.243-14.332,8.243
				c-5.933,0-10.593-2.477-13.232-5.847c-2.737-3.458-3.836-7.622-3.836-11.523c0-10.897,7.392-20.022,18.347-20.022
				c7.849,0,12.962,5.225,12.962,10.546c0,1.235-0.183,1.948-0.367,2.299c-0.274,0.534-1.553,0.622-5.385,0.622H201.923z
				 M207.582,46.271c6.759,0,8.759-0.353,9.493-0.886c0.273-0.174,0.548-0.529,0.548-1.682c0-2.483-1.731-5.583-7.028-5.583
				c-5.386,0-10.042,4.787-10.134,7.71c0,0.18,0,0.44,0.638,0.44H207.582z"/>
			<path fill="#FFFFFF" d="M237.627,46.183c0-3.454,0-3.897-2.464-5.493l-0.825-0.531c-0.362-0.355-0.362-1.327,0.088-1.594
				c2.105-0.709,6.941-3.013,9.22-4.344c0.46,0.087,0.733,0.271,0.733,0.621v5.141c0,0.442,0.092,0.707,0.275,0.797
				c3.191-2.565,6.659-5.314,10.041-5.314c2.279,0,4.104,1.418,4.104,3.537c0,2.926-2.463,4.083-3.924,4.083
				c-0.911,0-1.367-0.267-2.01-0.623c-1.369-0.885-2.734-1.416-4.015-1.416c-1.462,0-2.552,0.798-3.286,1.772
				c-0.91,1.235-1.186,3.81-1.186,6.822v12.051c0,6.382,0.185,7.443,3.65,7.713l3.284,0.264c0.641,0.449,0.454,1.951-0.177,2.218
				c-4.295-0.177-6.939-0.267-10.133-0.267c-3.291,0-6.025,0.09-8.399,0.267c-0.639-0.267-0.822-1.769-0.18-2.218l1.727-0.264
				c3.384-0.533,3.476-1.331,3.476-7.713V46.183z"/>
			<path opacity="0.9" fill="#FFFFFF" d="M260.963,67.987c0-3.017,2.194-5.233,5.111-5.233c3.098,0,5.111,2.394,5.111,5.233
				c0,2.833-2.014,4.87-5.111,4.87C263.423,72.857,260.963,70.996,260.963,67.987z"/>
			<path fill="#FFFFFF" d="M297.999,53.271c1.37-0.44,1.556-1.237,1.556-2.564l0.09-4.078c0.093-3.281-1.002-7.708-6.661-7.708
				c-2.557,0-5.66,1.238-5.839,3.988c-0.099,1.415-0.183,2.478-0.917,3.011c-1.372,1.063-3.836,1.687-5.2,1.687
				c-0.824,0-1.278-0.443-1.278-1.238c0-4.613,10.315-10.902,16.974-10.902c6.573,0,9.769,3.719,9.493,10.366l-0.545,15.418
				c-0.183,4.078,0.637,7.712,4.195,7.712c0.915,0,1.734-0.265,2.285-0.534c0.452-0.264,0.91-0.62,1.185-0.62
				c0.362,0,0.643,0.533,0.643,1.154c0,0.443-3.197,3.896-7.671,3.896c-2.188,0-4.382-0.798-5.935-2.74
				c-0.362-0.539-0.907-1.246-1.457-1.246c-0.641,0-1.735,0.797-3.56,1.773c-2.012,1.064-4.014,2.213-6.572,2.213
				c-2.646,0-4.84-0.705-6.393-2.037c-1.732-1.505-2.828-3.722-2.828-6.206c0-3.451,1.738-5.492,7.581-7.527L297.999,53.271z
				 M292.342,68.871c1.825,0,4.656-1.329,5.57-2.216c1.091-1.064,1.091-2.305,1.183-4.167l0.186-5.226
				c0-0.977-0.364-1.15-0.912-1.15c-0.545,0-2.103,0.349-3.745,0.885c-5.38,1.777-8.03,3.1-8.03,6.556
				C286.593,65.061,287.685,68.871,292.342,68.871z"/>
			<path fill="#FFFFFF" d="M330.062,40.425c-1.554,0-1.646,0.265-1.646,2.127v16.57c0,5.142,0.637,9.839,6.661,9.839
				c0.914,0,1.734-0.176,2.467-0.443c0.819-0.267,2.01-1.243,2.282-1.243c0.73,0,1.096,0.977,0.905,1.511
				c-1.637,1.859-4.92,4.072-9.581,4.072c-7.848,0-9.487-4.251-9.487-9.573V42.995c0-2.394-0.092-2.57-1.922-2.57h-2.552
				c-0.548-0.355-0.64-1.333-0.272-1.86c2.646-0.797,4.929-1.947,5.839-2.746c1.189-1.063,2.919-3.455,3.835-5.231
				c0.456-0.175,1.548-0.175,1.917,0.444v3.993c0,1.593,0.093,1.679,1.646,1.679h10.129c1.095,0.798,0.911,3.192,0.092,3.722
				H330.062z"/>
			<path fill="#FFFFFF" d="M181.233,24.88c0,3.188-2.285,4.609-4.839,4.609c-2.83,0-4.654-2.042-4.654-4.434
				c0-2.929,2.189-4.787,4.928-4.787C179.408,20.269,181.233,22.394,181.233,24.88z"/>
		</g>
	</g>
</g>
</svg>
